<mxfile host="app.diagrams.net" modified="2023-03-31T17:03:25.463Z" agent="Mozilla/5.0 (Windows NT 10.0; WOW64) AppleWebKit/537.36 (KHTML, like Gecko) Chrome/111.0.0.0 Safari/537.36 OPR/97.0.0.0" version="21.1.2" etag="HwZcLJzZEofOuXf66alW" type="github">
  <diagram name="Страница 1" id="1OQtE4tL1SuDiULffbAX">
    <mxGraphModel>
      <root>
        <mxCell id="0" />
        <mxCell id="1" parent="0" />
      </root>
    </mxGraphModel>
  </diagram>
</mxfile>
